Coordinates
version=1
nRows=4
nColumns=63
inDegrees=yes

Units are S.I. units (second, meters, Newtons, ...)
If the header above contains a line with 'inDegrees', this indicates whether rotational values are in degrees (yes) or radians (no).

endheader
time	pelvis_tilt	pelvis_list	pelvis_rotation	pelvis_tx	pelvis_ty	pelvis_tz	hip_flexion_r	hip_adduction_r	hip_rotation_r	knee_angle_r	knee_angle_r_beta	ankle_angle_r	subtalar_angle_r	mtp_angle_r	hip_flexion_l	hip_adduction_l	hip_rotation_l	knee_angle_l	knee_angle_l_beta	ankle_angle_l	subtalar_angle_l	mtp_angle_l	L5_S1_Flex_Ext	L5_S1_Lat_Bending	L5_S1_axial_rotation	L4_L5_Flex_Ext	L4_L5_Lat_Bending	L4_L5_axial_rotation	L3_L4_Flex_Ext	L3_L4_Lat_Bending	L3_L4_axial_rotation	L2_L3_Flex_Ext	L2_L3_Lat_Bending	L2_L3_axial_rotation	L1_L2_Flex_Ext	L1_L2_Lat_Bending	L1_L2_axial_rotation	L1_T12_Flex_Ext	L1_T12_Lat_Bending	L1_T12_axial_rotation	Abs_r3	Abs_r2	Abs_r1	Abs_t1	Abs_t2	neck_flexion	neck_bending	neck_rotation	arm_flex_r	arm_add_r	arm_rot_r	elbow_flex_r	pro_sup_r	wrist_flex_r	wrist_dev_r	arm_flex_l	arm_add_l	arm_rot_l	elbow_flex_l	pro_sup_l	wrist_flex_l	wrist_dev_l
      0.00800000	    -41.20706426	      2.67768785	      3.91448595	     -0.16447921	      1.03146245	      0.02829848	     76.13921325	     -9.43271261	     -1.01091985	     64.27154685	      1.12175011	      1.39357551	    -15.52843385	      0.00000000	    114.57528971	     -0.77471808	      0.05637482	     99.59713605	      1.73829795	     10.30425574	    -13.80743454	      0.00000000	     -0.06442567	     -0.40159627	     -0.96264498	     -0.11964490	     -0.53412304	     -1.02281029	     -0.10584493	     -0.97644117	     -1.02281029	     -0.07363209	     -0.97644117	     -0.84231436	     -0.05982567	     -0.81893511	     -0.78214905	     -0.03681283	     -0.62207262	     -0.72198373	     -0.46018608	     -4.54293732	     -5.35394258	      0.00000000	      0.00000000	     -0.00000000	      0.00000000	      0.00000000	     66.58437717	    -10.81690441	     20.95109932	     40.00315395	     56.93583317	      0.00000000	      5.02467323	     70.90189776	    -20.97262223	     35.69091796	     46.24676906	     57.30635020	      0.00000000	      5.02467323
      0.01700000	    -41.18139633	      2.35257568	      3.04100211	     -0.16552244	      1.03127571	      0.02984180	     77.89218759	     -8.28197452	     -0.12082630	     69.63899105	      1.21542968	      1.92271358	    -14.18750932	      0.00000000	    112.86295185	     -1.15842531	      0.39776847	     96.02033092	      1.67587092	     10.44214893	    -12.22906657	      0.00000000	     -0.05441021	     -0.35420579	     -0.85619166	     -0.10104521	     -0.47109370	     -0.90970364	     -0.08939054	     -0.86121596	     -0.90970364	     -0.06218543	     -0.86121596	     -0.74916771	     -0.05052532	     -0.72229645	     -0.69565573	     -0.03109000	     -0.54866477	     -0.64214375	     -0.38864671	     -4.00684676	     -4.76188117	      0.00000000	      0.00000000	     -0.00000000	      0.00000000	      0.00000000	     66.55027010	    -10.83889533	     20.39397612	     40.22555611	     57.08641762	      0.00000000	      5.02402281	     70.40009483	    -21.53799263	     35.31945842	     47.18592174	     57.45536325	      0.00000000	      5.02402281
      0.02500000	    -41.05811689	      2.22638816	      2.80691771	     -0.16541793	      1.03129516	      0.03040462	     78.27636507	     -8.07885384	     -0.00224685	     71.36495468	      1.24555343	      3.27473761	    -13.58141709	      0.00000000	    112.01953626	     -1.29817983	      0.72137702	     94.58645362	      1.65084504	     11.20484759	    -11.12802373	      0.00000000	     -0.06458639	     -0.34380377	     -0.80570581	     -0.11994338	     -0.45725902	     -0.85606243	     -0.10610898	     -0.83592449	     -0.85606243	     -0.07381578	     -0.83592449	     -0.70499259	     -0.05997492	     -0.70108465	     -0.65463597	     -0.03690466	     -0.53255204	     -0.60427936	     -0.46133411	     -3.88917703	     -4.48109403	      0.00000000	      0.00000000	     -0.00000000	      0.00000000	      0.00000000	     66.41384482	    -10.90897821	     20.09572237	     40.41292189	     57.03976877	      0.00000000	      5.02239464	     70.41812116	    -21.35528465	     35.12441830	     46.93423182	     57.39691594	      0.00000000	      5.02239464
      0.03300000	    -40.97138282	      1.92825770	      2.34667889	     -0.16525643	      1.03125773	      0.03114353	     78.78466140	     -7.58603598	      0.06703387	     73.29511036	      1.27924100	      4.35783949	    -13.32663113	      0.00000000	    111.14920910	     -1.58655310	      1.26922415	     92.93652860	      1.62204842	     11.41351962	    -10.65492454	      0.00000000	     -0.06636583	     -0.31024141	     -0.71338514	     -0.12324797	     -0.41262108	     -0.75797171	     -0.10903241	     -0.75432097	     -0.75797171	     -0.07584950	     -0.75432097	     -0.62421199	     -0.06162731	     -0.63264429	     -0.57962542	     -0.03792143	     -0.48056395	     -0.53503885	     -0.47404445	     -3.50951291	     -3.96763411	      0.00000000	      0.00000000	     -0.00000000	      0.00000000	      0.00000000	     66.30202798	    -11.08028979	     20.06347508	     40.58893003	     56.86323865	      0.00000000	      5.02156897	     70.30664350	    -21.24876531	     35.04836526	     46.98861788	     57.20520463	      0.00000000	      5.02156897
